HIERARCHY
ROOT Hips
{
	OFFSET 0.000000 0.000000 0.000000
	CHANNELS 6 Xposition Yposition Zposition Xrotation Yrotation Zrotation
	JOINT LeftUpLeg_virtual
	{
		OFFSET 0.000000 0.000000 0.000000
		CHANNELS 3 Xrotation Yrotation Zrotation
		JOINT LeftUpLeg
		{
			OFFSET 13.026900 -6.336304 -1.092800
			CHANNELS 3 Xrotation Yrotation Zrotation
			JOINT LeftLeg
			{
				OFFSET 0.524474 -46.096886 9.782700
				CHANNELS 3 Xrotation Yrotation Zrotation
				JOINT LeftFoot
				{
					OFFSET -0.524474 -53.427422 -12.948200
					CHANNELS 3 Xrotation Yrotation Zrotation
					JOINT LeftToeBase
					{
						OFFSET 0.192200 -14.009700 16.364100
						CHANNELS 3 Xrotation Yrotation Zrotation
						JOINT LeftToe_End
						{
							OFFSET -1.784700 -0.561700 9.474800
							CHANNELS 3 Xrotation Yrotation Zrotation
							End Site
							{
								OFFSET 0 0 0
							}
						}
					}
				}
			}
		}
	}
	JOINT RightUpLeg_virtual
	{
		OFFSET 0.000000 0.000000 0.000000
		CHANNELS 3 Xrotation Yrotation Zrotation
		JOINT RightUpLeg
		{
			OFFSET -12.883000 -6.336304 -1.092800
			CHANNELS 3 Xrotation Yrotation Zrotation
			JOINT RightLeg
			{
				OFFSET -0.524587 -46.096825 9.782800
				CHANNELS 3 Xrotation Yrotation Zrotation
				JOINT RightFoot
				{
					OFFSET 0.524587 -53.427383 -12.948300
					CHANNELS 3 Xrotation Yrotation Zrotation
					JOINT RightToeBase
					{
						OFFSET -0.192200 -14.009700 16.364100
						CHANNELS 3 Xrotation Yrotation Zrotation
						JOINT RightToe_End
						{
							OFFSET 1.784700 -0.561700 9.474800
							CHANNELS 3 Xrotation Yrotation Zrotation
							End Site
							{
								OFFSET 0 0 0
							}
						}
					}
				}
			}
		}
	}
	JOINT Spine_virtual
	{
		OFFSET 0.000000 0.000000 0.000000
		CHANNELS 3 Xrotation Yrotation Zrotation
		JOINT Spine
		{
			OFFSET 0.072000 7.257294 -0.789700
			CHANNELS 3 Xrotation Yrotation Zrotation
			JOINT Spine1
			{
				OFFSET 0.000000 12.508769 -0.658067
				CHANNELS 3 Xrotation Yrotation Zrotation
				JOINT Spine1_split
				{
					OFFSET 0.000000 12.508769 -0.658067
					CHANNELS 3 Xrotation Yrotation Zrotation
					JOINT Spine2
					{
						OFFSET 0.000000 12.508769 -0.658067
						CHANNELS 3 Xrotation Yrotation Zrotation
						JOINT Neck_virtual
						{
							OFFSET 0.000000 0.000000 0.000000
							CHANNELS 3 Xrotation Yrotation Zrotation
							JOINT Neck
							{
								OFFSET 0.000000 14.033295 7.520400
								CHANNELS 3 Xrotation Yrotation Zrotation
								JOINT Head
								{
									OFFSET 0.000000 8.198502 5.703100
									CHANNELS 3 Xrotation Yrotation Zrotation
									JOINT HeadTop_End
									{
										OFFSET 0.000000 17.760803 13.332701
										CHANNELS 3 Xrotation Yrotation Zrotation
										End Site
										{
											OFFSET 0 0 0
										}
									}
								}
							}
						}
						JOINT LeftShoulder_virtual
						{
							OFFSET 0.000000 0.000000 0.000000
							CHANNELS 3 Xrotation Yrotation Zrotation
							JOINT LeftShoulder
							{
								OFFSET 6.292450 5.785301 -0.669000
								CHANNELS 3 Xrotation Yrotation Zrotation
								JOINT LeftShoulder_split
								{
									OFFSET 6.292450 5.785301 -0.669000
									CHANNELS 3 Xrotation Yrotation Zrotation
									JOINT LeftArm
									{
										OFFSET 13.907140 -6.093903 1.965100
										CHANNELS 3 Xrotation Yrotation Zrotation
										JOINT LeftForeArm
										{
											OFFSET 34.140198 0.000000 0.000000
											CHANNELS 3 Xrotation Yrotation Zrotation
											JOINT LeftHand
											{
												OFFSET 40.960209 0.000000 0.000000
												CHANNELS 3 Xrotation Yrotation Zrotation
												End Site
												{
													OFFSET 0 0 0
												}
											}
										}
									}
								}
							}
						}
						JOINT RightShoulder_virtual
						{
							OFFSET 0.000000 0.000000 0.000000
							CHANNELS 3 Xrotation Yrotation Zrotation
							JOINT RightShoulder
							{
								OFFSET -6.292450 5.785301 -0.669000
								CHANNELS 3 Xrotation Yrotation Zrotation
								JOINT RightShoulder_split
								{
									OFFSET -6.292450 5.785301 -0.669000
									CHANNELS 3 Xrotation Yrotation Zrotation
									JOINT RightArm
									{
										OFFSET -13.907140 -6.093903 1.965100
										CHANNELS 3 Xrotation Yrotation Zrotation
										JOINT RightForeArm
										{
											OFFSET -34.140198 0.000000 0.000000
											CHANNELS 3 Xrotation Yrotation Zrotation
											JOINT RightHand
											{
												OFFSET -40.960209 0.000000 0.000000
												CHANNELS 3 Xrotation Yrotation Zrotation
												End Site
												{
													OFFSET 0 0 0
												}
											}
										}
									}
								}
							}
						}
					}
				}
			}
		}
	}
}
MOTION
Frames: 5
Frame Time: 0.03333333
2.386191 83.436600 -57.337212 0.000000 0.000000 0.000000 21.652101 -76.701733 19.385363 -43.382056 -8.237325 26.105111 76.485811 5.600415 -1.334324 -19.583489 6.950201 -29.495257 -6.156043 -3.006950 2.099542 0.000000 0.000000 0.000000 24.848805 -76.449372 22.835771 -54.996827 2.656980 -14.523822 82.541497 10.733843 -7.261096 -26.681933 -4.347190 4.173659 -1.750876 0.984869 0.757046 0.000000 0.000000 0.000000 30.808822 -80.820925 28.876824 6.829750 11.690023 -4.408054 10.852677 18.066535 -6.414309 0.787551 -6.721448 2.473624 0.000000 0.000000 0.000000 12.485695 17.925855 -7.870548 -0.003484 2.868351 2.311901 5.187821 3.794382 -7.018567 0.000000 0.000000 0.000000 10.108502 18.292917 -7.203949 4.656394 -4.120289 0.293690 3.917955 3.908248 -0.500682 -77.791456 -29.213365 -59.571551 51.609275 -74.682238 49.200820 0.000000 0.000000 0.000000 9.308913 18.358662 -6.623333 5.458334 9.102051 -1.657314 -3.676112 6.146903 -4.590251 -47.191652 -6.116131 29.392852 -15.374612 46.847270 0.481873 0.000000 0.000000 0.000000 
2.680606 82.928551 -57.682274 0.000000 0.000000 0.000000 33.186052 -73.684374 30.084699 -49.836137 -9.102716 26.609802 78.042056 5.092052 -1.727007 -19.069415 6.073731 -28.262370 -6.720255 -3.304857 2.095047 0.000000 0.000000 0.000000 33.644170 -73.820562 31.550263 -57.073177 2.684627 -15.237474 82.864811 10.396140 -5.658004 -29.364472 -4.433668 3.537803 -0.008215 0.727395 0.470420 0.000000 0.000000 0.000000 40.674501 -77.090706 37.959760 7.202415 11.374585 -4.228873 11.504126 17.372818 -6.518985 1.098850 -7.223675 2.388446 0.000000 0.000000 0.000000 12.424170 17.361945 -7.593578 -0.127558 4.900827 2.715733 2.031469 6.864175 -10.567660 0.000000 0.000000 0.000000 10.506422 17.616653 -7.367389 3.710836 -4.546043 -1.795148 2.431726 3.739348 -1.099469 -63.374272 -20.712385 -54.574987 49.644069 -71.451729 46.212111 0.000000 0.000000 0.000000 9.660160 17.876415 -6.478794 4.840760 9.022529 1.406940 -3.146917 6.386795 -5.087777 -41.751017 -12.119332 30.022079 -14.937801 46.701374 4.224831 0.000000 0.000000 0.000000 
2.891527 83.068726 -57.774292 0.000000 0.000000 0.000000 40.995625 -70.895806 37.547367 -55.615143 -9.467331 26.533232 78.524424 4.387395 -1.809793 -17.825189 5.083172 -26.378908 -7.236226 -3.620629 1.990192 0.000000 0.000000 0.000000 39.410622 -71.189218 37.548432 -58.956827 3.568848 -16.176209 82.477403 10.615330 -4.654409 -29.892753 -3.891122 4.874594 -0.021850 0.534197 0.077865 0.000000 0.000000 0.000000 44.920597 -73.377972 41.642287 7.278150 11.095436 -3.595970 12.032140 16.681315 -6.417803 1.355569 -7.360593 1.993499 0.000000 0.000000 0.000000 12.251471 16.746712 -7.107509 -0.578076 6.769042 2.978271 -0.273839 10.013726 -13.944646 0.000000 0.000000 0.000000 10.808724 16.919185 -7.315447 3.076751 -4.071567 -3.313271 1.428844 3.357941 -1.698157 -49.540475 -11.786924 -51.573481 39.480980 -67.990742 36.049284 0.000000 0.000000 0.000000 9.954777 17.307595 -6.217364 4.437398 8.981689 4.061695 -2.282169 7.271315 -5.091918 -34.866033 -19.211782 32.478526 -14.497626 47.390011 6.980048 0.000000 0.000000 0.000000 
3.127441 83.384392 -57.921074 0.000000 0.000000 0.000000 44.657327 -68.414972 41.454132 -60.216826 -9.257257 25.811457 78.197244 3.498169 -1.518730 -16.120505 4.355040 -24.478607 -6.944236 -3.817632 1.794980 0.000000 0.000000 0.000000 42.698525 -68.834278 41.298281 -60.158448 5.138403 -17.030602 81.537740 11.161368 -4.354193 -29.493942 -2.994095 7.423233 -0.861555 0.355598 -0.197957 0.000000 0.000000 0.000000 46.018748 -70.304776 42.583740 7.041552 10.829866 -2.691877 12.432629 16.019159 -6.194733 1.350635 -7.023355 1.775637 0.000000 0.000000 0.000000 11.995823 16.089296 -6.539150 -1.264027 8.358772 3.076232 -1.584568 12.775214 -16.849906 0.000000 0.000000 0.000000 11.048556 16.209494 -7.095860 2.702757 -3.095200 -4.186021 1.204059 2.650833 -2.208613 -36.829036 -4.020343 -51.691493 27.689544 -64.348168 24.768588 0.000000 0.000000 0.000000 10.285884 16.691901 -5.904150 4.146929 9.265783 6.529959 -1.487592 8.037449 -4.784279 -25.963173 -26.042086 37.190916 -13.890210 47.573333 8.511935 0.000000 0.000000 0.000000 
3.207909 83.671898 -57.857536 0.000000 0.000000 0.000000 44.388231 -66.295107 41.982885 -63.221146 -8.494512 24.551518 76.813291 2.579354 -0.980026 -14.092903 4.109049 -23.316236 -5.941371 -3.769089 1.495169 0.000000 0.000000 0.000000 43.464206 -66.653924 42.624291 -59.898047 6.907997 -17.661121 79.980135 11.347132 -4.370413 -29.342366 -2.293404 9.518454 -1.192253 0.160923 -0.209558 0.000000 0.000000 0.000000 44.640337 -67.976242 41.561401 6.649068 10.474385 -1.861324 12.704063 15.361867 -5.957161 1.240133 -6.206143 1.657604 0.000000 0.000000 0.000000 11.757247 15.391939 -5.997149 -2.079972 9.617184 3.031926 -2.014195 14.862787 -19.074560 0.000000 0.000000 0.000000 11.253450 15.486708 -6.820446 2.489728 -1.999763 -4.495297 1.527577 2.019501 -2.611313 -26.007658 1.677981 -54.795534 17.637843 -60.358252 15.220132 0.000000 0.000000 0.000000 10.691601 16.036608 -5.585620 3.834951 9.869722 8.821027 -0.853429 8.504491 -4.236131 -16.189280 -31.252391 43.273937 -13.164302 46.458889 8.871701 0.000000 0.000000 0.000000 
